<svg xmlns:inkscape="http://www.inkscape.org/namespaces/inkscape" xmlns:sodipodi="http://sodipodi.sourceforge.net/DTD/sodipodi-0.dtd" xmlns="http://www.w3.org/2000/svg" xmlns:svg="http://www.w3.org/2000/svg" viewBox="0 0 1400 500" id="svg30" sodipodi:docname="Fundacao_Lemann_Logo_Principal_Fundo_Branco.svg" inkscape:version="1.4 (86a8ad7, 2024-10-11)" width="1400" height="500"><defs id="defs1"><style id="style1">      .cls-1 {        fill: none;      }      .cls-2 {        fill: #052b48;      }      .cls-3 {        fill: #00a180;      }      .cls-4 {        fill: #fff;      }      .cls-5 {        fill: #b2c530;      }    </style></defs><g id="Logotipos" transform="translate(-260.00276,-290.01)"><g id="Logo_1"><g id="g13"><path class="cls-5" d="m 1489.27,355 c -1.03,0 -1.9,0.49 -2.29,1.51 -5.06,13.55 -12.72,34.03 -61.01,81.57 -6.71,6.6 -0.51,13.36 5.54,13.36 1.85,0 3.62,-0.55 5.18,-2.17 21.88,-22.91 39.79,-42.24 53.12,-66.12 2.1,-3.78 8.16,-16.65 8.09,-20.4 -0.05,-2.63 -4.72,-7.75 -8.61,-7.75" id="path1"></path><path class="cls-2" d="m 1541.95,357.79 c 7.08,0 16.02,12.01 13.73,38.79 -1.88,21.86 -13.4,42.07 -21.92,56.77 -2.37,4.09 -7.4,1.69 -9.02,0 -1.26,-1.32 -5.13,-6.03 -1.81,-11.31 28.77,-45.67 22.28,-68.86 18.4,-82.72 -0.24,-0.79 -0.14,-1.54 0.61,-1.54" id="path2"></path><path class="cls-3" d="m 1535.95,481.9 c -1.85,0 -3.21,0.78 -4.4,2.36 -2.65,3.48 -6.25,8.53 -8.49,11.59 -1.54,2.1 -2.61,4.49 -2.61,7.11 0,2.47 1.53,4.91 3.27,6.29 1.59,1.25 3.1,2.01 5.37,1.69 1.46,-0.21 3.03,-1.27 3.87,-2.42 2.92,-3.98 6.76,-9.46 8.78,-12.36 0.79,-1.13 1.54,-3 1.69,-4.34 0.57,-5.26 -3.09,-9.92 -7.48,-9.92" id="path3"></path><path class="cls-2" d="m 1361.12,376.37 c -1.64,0.04 -3.09,0.53 -4.58,1.73 -5.26,4.24 -15.96,12.96 -23.84,19.51 -3.8,3.15 -1.72,9.24 2.18,9.65 1.27,0.13 3.29,-0.07 5.54,-1.94 6.05,-5.05 20.91,-17.54 23.85,-20.13 3.54,-3.11 1.46,-8.82 -3.15,-8.82" id="path4"></path><path class="cls-5" d="m 1325.47,419.93 c -1.6,-0.2 -2.71,0.61 -4.85,2.34 -26.4,23.44 -45.18,41.84 -59.66,58.01 -16.97,18.95 -28.02,34.84 -38.5,52.23 13.94,23.71 14.48,24.63 18.55,18.2 1.57,-2.45 3.13,-4.86 4.69,-7.24 21,-31.83 42.67,-57.65 95.61,-105.91 -6.07,-7.88 -9.5,-12.06 -11.56,-14.53 -1.89,-2.25 -2.91,-2.92 -4.29,-3.1" id="path5"></path><path class="cls-2" d="m 1260.06,463.47 c 17.76,-18.25 33.28,-32.37 48.25,-45.72 2.74,-2.45 3.75,-4.68 3.75,-7.14 0,-2.46 -1.57,-4.77 -4.17,-4.77 -1.49,0 -2.53,0.45 -4.72,2.22 -15.03,12.88 -19.07,16.34 -32.78,29.19 -2.83,-7.27 -4.74,-11.79 -5.99,-14.5 -1.68,-3.62 -3.57,-3.62 -6.52,-0.77 -15.87,15.3 -25.15,25 -30.63,31.42 -7.41,8.68 -7.79,12.04 -6.83,15.78 0.96,3.74 3.83,11.97 5.78,16.98 -20.76,29.4 -21.15,31.19 -18.3,38.55 7.77,16.42 8.58,18.13 12.17,12.13 0.83,-1.43 1.59,-2.94 2.41,-4.33 10.48,-17.38 21.53,-33.28 38.49,-52.23 -3.99,-7.26 -6.01,-10.93 -0.9,-16.81" id="path6"></path><path class="cls-5" d="m 1302.01,618.8 c 7.62,-12.26 23.69,-32.59 55.69,-67.38 q 18.98,-20.28 69.38,-69.78 c -8.1,-7.75 -12.95,-12.32 -15.99,-15.1 -3,-2.75 -4.94,-4.01 -7.35,-4.01 -2.41,0 -4.15,0.74 -5.79,2.29 -1.64,1.54 -3.45,3.27 -5.18,4.91 -32.53,30.86 -66.1,63.36 -100.62,109.32 -11.7,16.59 -12.16,17.23 -6.78,23.22 4.96,4.96 11.61,11.65 16.66,16.53" id="path7"></path><path class="cls-3" d="m 1513.16,403.57 c -1.36,0 -2.64,0.95 -3.43,2.28 -23.11,39.29 -49.6,65.06 -49.84,65.28 -7.46,6.74 -14.92,-6.13 -22.37,0 l -10.45,10.5 q -50.4,49.5 -69.38,69.78 c -31.99,34.79 -48.06,55.13 -55.69,67.38 -9.1,14.64 -6.14,17.76 -3.84,20.19 16.25,14.55 17.21,14.34 20.22,10.18 0.72,-1 2.21,-3.17 3.3,-4.72 17.47,-24.68 33.86,-43.45 70.94,-80.79 4.84,-4.88 10.04,-10.08 15.65,-15.64 30.56,-30.38 71.79,-73.78 92.97,-102.88 11.19,-15.36 16.2,-23.66 20.19,-33.43 1.59,-3.91 -2.75,-8.14 -8.28,-8.14" id="path8"></path><path class="cls-5" d="m 1384.15,662.4 c -16.43,18.32 -26.26,31.93 -37.49,50.19 0,0 9.54,6.74 15.96,11.15 2.76,1.9 5.86,1.09 7.69,-1.4 9.69,-13.24 19.29,-25.81 30.01,-36.92 1.46,-1.51 3.31,-5.26 -0.44,-8.95 -4.72,-4.22 -11,-9.84 -15.73,-14.05" id="path9"></path><path class="cls-3" d="m 1433.02,373.82 c -1.66,0 -2.65,0.46 -4.13,1.71 -45.8,46.03 -47.11,44.74 -52.6,39.34 -2.14,-2.12 -6.16,-2.7 -9.68,0.24 -7.61,6.71 -17.72,15.68 -25.29,22.45 -52.94,48.27 -74.61,74.09 -95.61,105.91 17.18,23.73 17.42,24.06 21.91,17.86 1.4,-1.97 2.79,-3.89 4.16,-5.77 24.72,-34.01 45.1,-56.99 99.73,-107.63 5.64,-5.23 11.64,-10.77 18.07,-16.63 10.63,-9.73 43.01,-39.32 49.04,-47.31 3.62,-4.78 -0.98,-10.17 -5.6,-10.17" id="path10"></path><path class="cls-2" d="m 1371.51,447.93 c -54.62,50.64 -75,73.62 -99.72,107.63 6.02,7.15 14.11,16.56 20.34,23.49 34.52,-45.96 68.09,-78.45 100.62,-109.32 -6.4,-6.46 -14.94,-15.19 -21.25,-21.79" id="path11"></path><path class="cls-3" d="m 1493.81,555.49 c 17.94,-18.36 17.12,-20.84 12.21,-26.25 -4.91,-5.42 -11.15,-12.29 -16.44,-18 -46.38,52.89 -104.81,94.95 -145.23,152.85 -6.86,9.84 -11.6,17.13 -14.76,22.62 -8.26,14.4 -5.61,16.44 -1.59,19.52 3.68,2.61 12.41,8.72 13.43,9.35 1.92,1.19 2.98,0.7 4.12,-1.17 0.4,-0.67 0.68,-1.13 1.11,-1.82 11.23,-18.26 21.06,-31.87 37.49,-50.18 5.36,-5.99 18.38,-18.57 24.21,-23.97 5.97,5.58 12.73,11.74 15.96,14.59 3.46,3.06 6.7,3.82 10.27,0.58 5.72,-5.21 34.07,-31.71 39.4,-37.21 2.9,-2.99 3.14,-6.78 0.89,-9.7 -4.55,-5.07 -9.4,-10.47 -15.24,-16.86 12.49,-12.31 23.33,-23.23 34.18,-34.33" id="path12"></path><path class="cls-2" d="m 1489.58,511.24 c 2.75,-3.17 5.92,-7.08 7.26,-8.92 2.89,-3.99 -0.2,-8.07 -3.6,-10.29 -3.52,-2.29 -7.15,-1.48 -9.3,0.98 -21.14,24.01 -55.69,59.55 -74.4,76.64 -3.62,3.31 -8.24,2.24 -10.93,-0.14 l -5.96,-5.85 c -37.09,37.33 -53.48,56.11 -70.94,80.79 6.8,5.95 15.8,13.77 22.66,19.64 40.41,-57.91 98.85,-99.97 145.23,-152.85" id="path13"></path></g><g id="g23"><polygon class="cls-1" points="796.15,453.02 783.71,490.79 808.29,490.79 " id="polygon13"></polygon><polygon class="cls-1" points="994.76,453.02 982.32,490.79 1006.9,490.79 " id="polygon14"></polygon><path class="cls-1" d="m 690.03,451.22 h -13.79 v 59.96 h 13.79 c 9.99,0 17.69,-2.65 23.08,-7.94 5.4,-5.3 8.09,-12.49 8.09,-21.58 0,-9.09 -2.5,-16.56 -7.49,-22.11 -5,-5.55 -12.89,-8.32 -23.68,-8.32 z" id="path14"></path><path class="cls-1" d="m 1114.29,453.84 c -4.25,-2.85 -9.32,-4.27 -15.21,-4.27 -5.89,0 -10.97,1.42 -15.21,4.27 -4.25,2.85 -7.52,6.65 -9.82,11.39 -2.3,4.75 -3.45,9.97 -3.45,15.66 0,5.69 1.15,10.94 3.45,15.74 2.3,4.8 5.57,8.64 9.82,11.54 4.25,2.9 9.32,4.35 15.21,4.35 5.89,0 10.97,-1.45 15.21,-4.35 4.25,-2.9 7.49,-6.75 9.74,-11.54 2.25,-4.8 3.37,-10.04 3.37,-15.74 0,-5.7 -1.12,-10.92 -3.37,-15.66 -2.25,-4.74 -5.5,-8.54 -9.74,-11.39 z" id="path15"></path><polygon class="cls-2" points="386.81,531.26 386.81,493.19 420.68,493.19 420.68,473.85 386.81,473.85 386.81,451.22 431.32,451.22 431.32,431.28 364.17,431.28 364.17,531.26 " id="polygon15"></polygon><path class="cls-2" d="m 505.22,490.49 c 0,6.5 -1.4,11.74 -4.2,15.74 -2.8,4 -7.75,6 -14.84,6 -7.09,0 -12.07,-2 -14.91,-6 -2.85,-4 -4.27,-9.24 -4.27,-15.74 v -59.21 h -22.78 v 62.05 c 0,8 1.72,15.06 5.17,21.21 3.45,6.15 8.32,10.92 14.61,14.31 6.3,3.4 13.69,5.1 22.18,5.1 8.49,0 16.01,-1.72 22.26,-5.17 6.24,-3.45 11.09,-8.22 14.54,-14.31 3.45,-6.09 5.17,-13.14 5.17,-21.13 v -62.05 h -22.93 v 59.21 z" id="path16"></path><polygon class="cls-2" points="568.47,431.28 546.89,431.28 546.89,531.26 569.22,531.26 569.22,465.16 613.59,531.26 634.12,531.26 634.12,431.28 611.79,431.28 611.79,496.18 " id="polygon16"></polygon><path class="cls-2" d="m 718.89,436.6 c -8.04,-3.55 -17.21,-5.32 -27.5,-5.32 h -37.77 v 99.98 h 37.62 c 10.29,0 19.46,-1.82 27.5,-5.47 8.04,-3.65 14.39,-9.14 19.04,-16.49 4.65,-7.34 6.97,-16.51 6.97,-27.5 0,-11.69 -2.3,-21.26 -6.9,-28.7 -4.6,-7.44 -10.92,-12.94 -18.96,-16.49 z m -5.78,66.63 c -5.4,5.3 -13.09,7.94 -23.08,7.94 h -13.79 v -59.96 h 13.79 c 10.79,0 18.68,2.77 23.68,8.32 5,5.55 7.49,12.92 7.49,22.11 0,9.19 -2.7,16.29 -8.09,21.58 z" id="path17"></path><path class="cls-2" d="m 784.46,431.28 -37.32,99.98 h 23.68 l 7.64,-22.93 h 35.22 l 7.64,22.93 h 24.73 l -36.57,-99.98 h -25.03 z m -0.75,59.51 12.44,-37.77 12.14,37.77 z" id="path18"></path><path class="cls-2" d="m 920.79,505.25 c -2.25,2.05 -4.97,3.72 -8.17,5.02 -3.2,1.3 -7.19,1.95 -11.99,1.95 -5.8,0 -10.84,-1.37 -15.14,-4.12 -4.3,-2.75 -7.62,-6.47 -9.97,-11.17 -2.35,-4.7 -3.52,-9.99 -3.52,-15.89 0,-5.9 1.17,-11.09 3.52,-15.89 2.35,-4.8 5.7,-8.62 10.04,-11.47 4.35,-2.85 9.52,-4.27 15.51,-4.27 5.99,0 10.59,1.27 14.69,3.82 4.1,2.55 7.64,5.92 10.64,10.12 l 15.44,-14.84 c -4.6,-6.39 -10.39,-11.29 -17.39,-14.69 -7,-3.4 -15.09,-5.1 -24.28,-5.1 -7.7,0 -14.71,1.35 -21.06,4.05 -6.35,2.7 -11.79,6.45 -16.34,11.24 -4.55,4.8 -8.07,10.42 -10.57,16.86 -2.5,6.45 -3.75,13.37 -3.75,20.76 0,10.09 2.17,19.06 6.52,26.91 4.35,7.85 10.39,14.01 18.14,18.51 7.74,4.5 16.66,6.75 26.76,6.75 6.19,0 11.99,-0.95 17.39,-2.85 5.4,-1.9 10.27,-4.45 14.61,-7.64 4.35,-3.2 7.92,-6.69 10.72,-10.49 l -15.44,-14.09 c -2,2.3 -4.12,4.47 -6.37,6.52 z" id="path19"></path><path class="cls-2" d="m 911.42,540.1 c -3.5,-2.3 -7.7,-3.45 -12.59,-3.45 -4.89,0 -9.44,0.55 -13.04,1.65 l -1.95,10.19 c 1.5,-0.5 3.12,-0.88 4.87,-1.12 1.75,-0.25 3.47,-0.37 5.17,-0.37 2,0 3.77,0.27 5.32,0.82 1.55,0.55 2.32,1.52 2.32,2.92 0,1.6 -0.88,2.67 -2.62,3.22 -1.75,0.55 -3.62,0.82 -5.62,0.82 -3.5,0 -7.05,-0.6 -10.64,-1.8 l -2.1,10.79 c 1.3,0.4 3.32,0.87 6.07,1.42 2.75,0.55 5.97,0.82 9.67,0.82 3.3,0 6.52,-0.55 9.67,-1.65 3.15,-1.1 5.72,-2.82 7.72,-5.17 2,-2.35 3,-5.32 3,-8.92 0,-4.5 -1.75,-7.89 -5.25,-10.19 z" id="path20"></path><path class="cls-2" d="m 983.07,431.28 -37.32,99.98 h 23.68 l 7.64,-22.93 h 35.22 l 7.64,22.93 h 24.73 l -36.57,-99.98 h -25.03 z m -0.75,59.51 12.44,-37.77 12.14,37.77 z" id="path21"></path><path class="cls-2" d="m 978.19,418.92 c 2.25,-1.15 4.92,-1.72 8.02,-1.72 2.7,0 5.07,0.52 7.12,1.57 2.05,1.05 4.12,2.12 6.22,3.22 2.1,1.1 4.5,1.65 7.19,1.65 4.1,0 7.79,-1 11.09,-3 3.3,-2 6.04,-4.15 8.24,-6.45 l -8.09,-12.29 c -1.7,1.3 -3.67,2.55 -5.92,3.75 -2.25,1.2 -4.92,1.8 -8.02,1.8 -2.6,0 -4.95,-0.52 -7.04,-1.57 -2.1,-1.05 -4.2,-2.1 -6.3,-3.15 -2.1,-1.05 -4.5,-1.57 -7.19,-1.57 -4,0 -7.7,0.97 -11.09,2.92 -3.4,1.95 -6.14,4.07 -8.24,6.37 l 8.09,12.29 c 1.7,-1.4 3.67,-2.67 5.92,-3.82 z" id="path22"></path><path class="cls-2" d="m 1147.2,460.44 c -2.6,-6.34 -6.27,-11.92 -11.02,-16.71 -4.75,-4.8 -10.27,-8.52 -16.56,-11.17 -6.3,-2.65 -13.14,-3.97 -20.53,-3.97 -7.39,0 -14.27,1.33 -20.61,3.97 -6.35,2.65 -11.87,6.37 -16.56,11.17 -4.7,4.8 -8.34,10.37 -10.94,16.71 -2.6,6.35 -3.9,13.27 -3.9,20.76 0,7.49 1.3,14.29 3.9,20.68 2.6,6.4 6.27,11.99 11.02,16.79 4.75,4.8 10.27,8.52 16.56,11.17 6.3,2.65 13.14,3.97 20.54,3.97 7.4,0 14.24,-1.33 20.53,-3.97 6.3,-2.65 11.82,-6.37 16.56,-11.17 4.75,-4.8 8.42,-10.39 11.02,-16.79 2.6,-6.39 3.9,-13.29 3.9,-20.68 0,-7.39 -1.3,-14.41 -3.9,-20.76 z m -23.16,36.19 c -2.25,4.8 -5.5,8.64 -9.74,11.54 -4.25,2.9 -9.32,4.35 -15.21,4.35 -5.89,0 -10.97,-1.45 -15.21,-4.35 -4.25,-2.9 -7.52,-6.75 -9.82,-11.54 -2.3,-4.8 -3.45,-10.04 -3.45,-15.74 0,-5.7 1.15,-10.92 3.45,-15.66 2.3,-4.74 5.57,-8.54 9.82,-11.39 4.25,-2.85 9.32,-4.27 15.21,-4.27 5.89,0 10.97,1.42 15.21,4.27 4.25,2.85 7.49,6.65 9.74,11.39 2.25,4.75 3.37,9.97 3.37,15.66 0,5.69 -1.12,10.94 -3.37,15.74 z" id="path23"></path></g><g id="g30"><path class="cls-1" d="m 564.5,634.55 c -3.46,-2.25 -7.84,-3.38 -13.14,-3.38 -5.3,0 -9.77,1.13 -13.39,3.38 -3.62,2.25 -6.35,5.03 -8.2,8.32 -1.85,3.3 -2.77,6.55 -2.77,9.77 h 47.76 c 0,-3.21 -0.84,-6.47 -2.53,-9.77 -1.69,-3.29 -4.26,-6.07 -7.72,-8.32 z" id="path24"></path><path class="cls-1" d="m 888.78,670.25 c -9.65,0 -16.48,1.37 -20.5,4.1 -4.02,2.74 -6.03,6.6 -6.03,11.58 0,9.33 5.63,13.99 16.88,13.99 5.46,0 10.49,-1.69 15.07,-5.07 4.58,-3.38 6.87,-8.2 6.87,-14.47 v -9.17 c -0.81,-0.16 -2.33,-0.36 -4.58,-0.6 -2.25,-0.24 -4.82,-0.36 -7.72,-0.36 z" id="path25"></path><polygon class="cls-2" points="400.38,688.82 400.38,560.27 363.96,560.27 363.96,721.14 477.32,721.14 477.32,688.82 " id="polygon25"></polygon><path class="cls-2" d="m 582.35,612.49 c -8.28,-5.55 -18.53,-8.32 -30.75,-8.32 -12.22,0 -22.71,2.77 -31.48,8.32 -8.77,5.55 -15.44,12.9 -20.02,22.07 -4.58,9.17 -6.87,19.05 -6.87,29.67 0,11.9 2.49,22.43 7.48,31.6 4.98,9.17 12.14,16.32 21.47,21.47 9.32,5.14 20.42,7.72 33.28,7.72 9.81,0 18.09,-1.13 24.84,-3.38 6.75,-2.25 12.18,-4.66 16.28,-7.24 4.1,-2.57 6.95,-4.42 8.56,-5.55 L 590.91,686.9 c -2.57,1.93 -6.67,4.22 -12.3,6.87 -5.63,2.65 -12.95,3.98 -21.95,3.98 -9,0 -16.16,-2.33 -21.47,-6.99 -5.31,-4.66 -8.04,-9.97 -8.2,-15.92 h 80.56 v -5.79 c 0,-12.7 -2.13,-23.92 -6.39,-33.65 -4.26,-9.73 -10.53,-17.37 -18.81,-22.91 z M 527,652.64 c 0,-3.21 0.92,-6.47 2.77,-9.77 1.85,-3.29 4.58,-6.07 8.2,-8.32 3.62,-2.25 8.08,-3.38 13.39,-3.38 5.31,0 9.69,1.13 13.14,3.38 3.46,2.25 6.03,5.03 7.72,8.32 1.69,3.3 2.53,6.55 2.53,9.77 h -47.76 z" id="path26"></path><path class="cls-2" d="m 765.77,605.37 c -7.24,0 -14.19,1.37 -20.86,4.1 -6.67,2.74 -12.34,6.6 -17,11.58 -2.57,-3.7 -6.51,-7.24 -11.82,-10.61 -5.31,-3.38 -12.46,-5.07 -21.47,-5.07 -7.4,0 -13.83,1.45 -19.3,4.34 -5.47,2.89 -9.97,6.51 -13.51,10.85 l -1.21,-12.54 h -33.28 v 113.12 h 34.73 v -60.78 c 0,-7.24 2.09,-13.18 6.27,-17.85 4.18,-4.66 9.49,-6.99 15.92,-6.99 5.95,0 10.41,1.89 13.39,5.67 2.97,3.78 4.46,8.97 4.46,15.56 v 64.4 h 33.53 v -60.78 c 0,-7.24 2.05,-13.18 6.15,-17.85 4.1,-4.66 9.44,-6.99 16.04,-6.99 5.95,0 10.41,1.89 13.39,5.67 2.97,3.78 4.46,8.97 4.46,15.56 v 64.4 h 34.73 v -69.94 c 0,-13.99 -3.86,-25.12 -11.58,-33.4 -7.72,-8.28 -18.73,-12.42 -33.04,-12.42 z" id="path27"></path><path class="cls-2" d="m 884.19,604.16 c -13.35,0 -24.04,1.57 -32.08,4.7 -8.04,3.14 -14.39,6.55 -19.05,10.25 l 14.23,21.22 c 3.54,-2.41 7.88,-4.58 13.02,-6.51 5.14,-1.93 11.49,-2.89 19.05,-2.89 5.63,0 10.65,1.25 15.07,3.74 4.42,2.49 6.63,6.63 6.63,12.42 v 2.41 c -1.29,-0.32 -3.98,-0.56 -8.08,-0.72 -4.1,-0.16 -8.16,-0.24 -12.18,-0.24 -9.81,0 -18.65,1.57 -26.53,4.7 -7.88,3.14 -14.11,7.76 -18.69,13.87 -4.58,6.11 -6.87,13.59 -6.87,22.43 0,8.84 2.09,16.08 6.27,21.22 4.18,5.15 9.2,8.72 15.07,10.73 5.87,2.01 11.46,3.01 16.76,3.01 14.79,0 26.21,-4.66 34.25,-13.99 l 0.96,10.61 h 32.56 v -65.84 c 0,-15.59 -4.1,-28.02 -12.3,-37.26 -8.2,-9.24 -20.9,-13.87 -38.11,-13.87 z m 16.89,76.22 c 0,6.27 -2.29,11.09 -6.87,14.47 -4.58,3.38 -9.61,5.07 -15.07,5.07 -11.26,0 -16.88,-4.66 -16.88,-13.99 0,-4.98 2.01,-8.84 6.03,-11.58 4.02,-2.73 10.85,-4.1 20.5,-4.1 2.89,0 5.46,0.12 7.72,0.36 2.25,0.24 3.78,0.44 4.58,0.6 v 9.17 z" id="path28"></path><path class="cls-2" d="m 1027.7,605.37 c -6.43,0 -12.71,1.37 -18.81,4.1 -6.11,2.74 -11.02,6.35 -14.71,10.85 l -0.96,-12.3 h -33.29 v 113.12 h 34.49 v -60.78 c 0,-6.59 1.97,-12.38 5.91,-17.37 3.94,-4.98 9.68,-7.48 17.25,-7.48 5.63,0 10.01,1.85 13.14,5.55 3.13,3.7 4.7,8.68 4.7,14.95 v 65.12 h 34.73 v -69.94 c 0,-15.11 -3.86,-26.53 -11.58,-34.25 -7.72,-7.72 -18.01,-11.58 -30.87,-11.58 z" id="path29"></path><path class="cls-2" d="m 1194.12,616.95 c -7.72,-7.72 -18.01,-11.58 -30.87,-11.58 -6.43,0 -12.7,1.37 -18.81,4.1 -6.11,2.74 -11.02,6.35 -14.71,10.85 l -0.96,-12.3 h -33.28 v 113.12 h 34.49 v -60.78 c 0,-6.59 1.97,-12.38 5.91,-17.37 3.94,-4.98 9.69,-7.48 17.25,-7.48 5.63,0 10.01,1.85 13.14,5.55 3.13,3.7 4.7,8.68 4.7,14.95 v 65.12 h 34.73 v -69.94 c 0,-15.11 -3.86,-26.53 -11.58,-34.25 z" id="path30"></path></g></g></g></svg>