<svg xmlns="http://www.w3.org/2000/svg" id="Layer_2" viewBox="0 0 349.41 369.78"><defs><style>      .cls-1 {        fill: #052b48;      }      .cls-2 {        fill: #00a180;      }      .cls-3 {        fill: #b2c530;      }    </style></defs><g id="Logotipos"><g><path class="cls-3" d="M282.64,0c-1.03,0-1.9.49-2.29,1.51-5.06,13.55-12.72,34.03-61.01,81.57-6.71,6.6-.51,13.36,5.54,13.36,1.85,0,3.62-.55,5.18-2.17,21.88-22.91,39.79-42.24,53.12-66.12,2.1-3.78,8.16-16.65,8.09-20.4-.05-2.63-4.72-7.75-8.61-7.75"></path><path class="cls-1" d="M335.32,2.79c7.08,0,16.02,12.01,13.73,38.79-1.88,21.86-13.4,42.07-21.92,56.77-2.37,4.09-7.4,1.69-9.02,0-1.26-1.32-5.13-6.03-1.81-11.31,28.77-45.67,22.28-68.86,18.4-82.72-.24-.79-.14-1.54.61-1.54"></path><path class="cls-2" d="M329.32,126.9c-1.85,0-3.21.78-4.4,2.36-2.65,3.48-6.25,8.53-8.49,11.59-1.54,2.1-2.61,4.49-2.61,7.11,0,2.47,1.53,4.91,3.27,6.29,1.59,1.25,3.1,2.01,5.37,1.69,1.46-.21,3.03-1.27,3.87-2.42,2.92-3.98,6.76-9.46,8.78-12.36.79-1.13,1.54-3,1.69-4.34.57-5.26-3.09-9.92-7.48-9.92"></path><path class="cls-1" d="M154.48,21.37c-1.64.04-3.09.53-4.58,1.73-5.26,4.24-15.96,12.96-23.84,19.51-3.8,3.15-1.72,9.24,2.18,9.65,1.27.13,3.29-.07,5.54-1.94,6.05-5.05,20.91-17.54,23.85-20.13,3.54-3.11,1.46-8.82-3.15-8.82"></path><path class="cls-3" d="M118.84,64.93c-1.6-.2-2.71.61-4.85,2.34-26.4,23.44-45.18,41.84-59.66,58.01-16.97,18.95-28.02,34.84-38.5,52.23,13.94,23.71,14.48,24.63,18.55,18.2,1.57-2.45,3.13-4.86,4.69-7.24,21-31.83,42.67-57.65,95.61-105.91-6.07-7.88-9.5-12.06-11.56-14.53-1.89-2.25-2.91-2.92-4.29-3.1"></path><path class="cls-1" d="M53.43,108.47c17.76-18.25,33.28-32.37,48.25-45.72,2.74-2.45,3.75-4.68,3.75-7.14s-1.57-4.77-4.17-4.77c-1.49,0-2.53.45-4.72,2.22-15.03,12.88-19.07,16.34-32.78,29.19-2.83-7.27-4.74-11.79-5.99-14.5-1.68-3.62-3.57-3.62-6.52-.77-15.87,15.3-25.15,25-30.63,31.42-7.41,8.68-7.79,12.04-6.83,15.78.96,3.74,3.83,11.97,5.78,16.98C-1.2,160.56-1.58,162.35,1.26,169.71c7.77,16.42,8.58,18.13,12.17,12.13.83-1.43,1.59-2.94,2.41-4.33,10.48-17.38,21.53-33.28,38.49-52.23-3.99-7.26-6.01-10.93-.9-16.81"></path><path class="cls-3" d="M95.37,263.8c7.62-12.26,23.69-32.59,55.69-67.38q18.98-20.28,69.38-69.78c-8.1-7.75-12.95-12.32-15.99-15.1-3-2.75-4.94-4.01-7.35-4.01s-4.15.74-5.79,2.29c-1.64,1.54-3.45,3.27-5.18,4.91-32.53,30.86-66.1,63.36-100.62,109.32-11.7,16.59-12.16,17.23-6.78,23.22,4.96,4.96,11.61,11.65,16.66,16.53"></path><path class="cls-2" d="M306.53,48.57c-1.36,0-2.64.95-3.43,2.28-23.11,39.29-49.6,65.06-49.84,65.28-7.46,6.74-14.92-6.13-22.37,0l-10.45,10.5q-50.4,49.5-69.38,69.78c-31.99,34.79-48.06,55.13-55.69,67.38-9.1,14.64-6.14,17.76-3.84,20.19,16.25,14.55,17.21,14.34,20.22,10.18.72-1,2.21-3.17,3.3-4.72,17.47-24.68,33.86-43.45,70.94-80.79,4.84-4.88,10.04-10.08,15.65-15.64,30.56-30.38,71.79-73.78,92.97-102.88,11.19-15.36,16.2-23.66,20.19-33.43,1.59-3.91-2.75-8.14-8.28-8.14"></path><path class="cls-3" d="M177.52,307.4c-16.43,18.32-26.26,31.93-37.49,50.19,0,0,9.54,6.74,15.96,11.15,2.76,1.9,5.86,1.09,7.69-1.4,9.69-13.24,19.29-25.81,30.01-36.92,1.46-1.51,3.31-5.26-.44-8.95-4.72-4.22-11-9.84-15.73-14.05"></path><path class="cls-2" d="M226.39,18.82c-1.66,0-2.65.46-4.13,1.71-45.8,46.03-47.11,44.74-52.6,39.34-2.14-2.12-6.16-2.7-9.68.24-7.61,6.71-17.72,15.68-25.29,22.45-52.94,48.27-74.61,74.09-95.61,105.91,17.18,23.73,17.42,24.06,21.91,17.86,1.4-1.97,2.79-3.89,4.16-5.77,24.72-34.01,45.1-56.99,99.73-107.63,5.64-5.23,11.64-10.77,18.07-16.63,10.63-9.73,43.01-39.32,49.04-47.31,3.62-4.78-.98-10.17-5.6-10.17"></path><path class="cls-1" d="M164.88,92.93c-54.62,50.64-75,73.62-99.72,107.63,6.02,7.15,14.11,16.56,20.34,23.49,34.52-45.96,68.09-78.45,100.62-109.32-6.4-6.46-14.94-15.19-21.25-21.79"></path><path class="cls-2" d="M287.18,200.49c17.94-18.36,17.12-20.84,12.21-26.25-4.91-5.42-11.15-12.29-16.44-18-46.38,52.89-104.81,94.95-145.23,152.85-6.86,9.84-11.6,17.13-14.76,22.62-8.26,14.4-5.61,16.44-1.59,19.52,3.68,2.61,12.41,8.72,13.43,9.35,1.92,1.19,2.98.7,4.12-1.17.4-.67.68-1.13,1.11-1.82,11.23-18.26,21.06-31.87,37.49-50.18,5.36-5.99,18.38-18.57,24.21-23.97,5.97,5.58,12.73,11.74,15.96,14.59,3.46,3.06,6.7,3.82,10.27.58,5.72-5.21,34.07-31.71,39.4-37.21,2.9-2.99,3.14-6.78.89-9.7-4.55-5.07-9.4-10.47-15.24-16.86,12.49-12.31,23.33-23.23,34.18-34.33"></path><path class="cls-1" d="M282.94,156.24c2.75-3.17,5.92-7.08,7.26-8.92,2.89-3.99-.2-8.07-3.6-10.29-3.52-2.29-7.15-1.48-9.3.98-21.14,24.01-55.69,59.55-74.4,76.64-3.62,3.31-8.24,2.24-10.93-.14l-5.96-5.85c-37.09,37.33-53.48,56.11-70.94,80.79,6.8,5.95,15.8,13.77,22.66,19.64,40.41-57.91,98.85-99.97,145.23-152.85"></path></g></g></svg>