<svg xmlns="http://www.w3.org/2000/svg" viewBox="0 0 1302.7 511.6"><defs><style>      .cls-1 {        fill: #da7680;      }      .cls-2 {        fill: #00a180;      }      .cls-3 {        fill: #052b47;      }      .cls-4 {        fill: #b2c530;      }    </style></defs><g><g id="Layer_2"><g id="TIPOGRAFIA"><g id="PRANCHETA_9"><g><path class="cls-4" d="M1292.8,188.8c-6.3,10-11.9,17-18.3,24.2-.5.5-.7.5-.8.3-.5-.8.5-4.5,2.4-6.6,13.7-15,19.1-25.2,22.5-31,.3-.5.4-.6.5-.5.3.4-.5,3.3-1.1,4.6-.8,1.8-4.2,7.5-5.2,9.1h0Z"></path><path class="cls-3" d="M1282.6,219.3c12-18.2,16.8-30.7,19.6-37.7.2-.4.3-.8.4-.7.6.5-1.4,7.2-7.6,20-5,10.3-10.2,18.7-14,24.5-1.1,1.6-.9,0-.7-.8.2-.7.9-3.2,2.2-5.2h0Z"></path><path class="cls-1" d="M1240.9,280.3c1.8-1.2,4.6-3.1,6.7-4.4.9-.6,1.6-.8,2-.7,1.1.3.1,2.7-2.1,5-.6.6-1.5,1.3-2.1,1.8-1.6,1.1-4.7,3.2-7,4.7-.7.4-1.5.8-1.9.7-.7,0-.8-.5-.7-1.2.1-.8.7-1.9,1.7-3,1-1.1,2.2-2.1,3.4-2.9h0Z"></path><path class="cls-3" d="M1287.6,170.1c-.8.8-9.4,8.6-11,9.8-.6.5-.8.2-.8,0-.2-.8.9-3.8,1.9-4.6,2-1.6,9.5-8.4,10.9-9.6.4-.3.6-.3.7-.1.3.7-.8,3.6-1.7,4.5h0Z"></path><path class="cls-3" d="M101.2,118.9C167.8,74.5,265.8,28,388.9,9.4c107-17,222.9-10.9,332.4,18.2,89.4,22.8,170.5,56.5,236.9,89.2,55.1,27,101.4,58.3,138.9,75.1,32.8,15.1,60.5,22.6,83,23.3,20.8.8,38.1-4.2,50.5-10,11.9-5.6,19.7-12.2,20.5-12.4.9-2.4,2.4-6.3,3.1-8.1.7-1.7,1.4-3,3.8-5,1.8-1.5,4.5-3.5,8.9-7,.8-.7,1-.3.3,1.6-.5,1.4-1.3,3.7-2.6,7.3,3.7-2.9,4.8-3.6,8.7-6.6.5-.4.7-.4.8-.2.2.4-.2,1.7-.7,2.8-.5,1.1-1.1,1.9-1.8,2.5-4,3.2-8.1,6.4-13.2,10.4-1.6,1.4-2.2,3.3-3.4,7-1.6,1.3-10.6,8.4-21.9,14.3-3.1,1.2-12,6.4-24.7,9.5-13.2,3.4-31.1,4.6-52.5.5-23.3-4.3-52.1-15.1-86.1-31.8-39.1-18.8-87.1-46-143.3-71.3-67.3-30.2-147.5-61.7-234.3-78.8-104.5-21.5-212.4-21.2-310.7-1.5C142.2,83.7,30.2,221.1,25.1,222.9h0c-1.2,2.1-2.3,4.4-3.5,6.6-5.2,9.2-6.7,6-21.6-24.7,1.5.7,31.4-39.6,101.2-85.9h0Z"></path><path class="cls-3" d="M25.1,222.9c5.1-1.8,117.1-139.2,356.1-184.6,98.3-19.7,206.3-19.9,310.8,1.7,86.8,17.1,167.1,48.7,234.3,78.9,56.2,25.2,104.2,52.4,143.3,71.1,34.1,16.6,62.8,27.4,86.1,31.7,21.4,4.1,39.3,2.9,52.5-.5,12.7-3.1,21.7-8.3,24.7-9.5-3.1,1.2-12,6.4-24.7,9.5-13.2,3.4-31.1,4.6-52.5.5-23.3-4.3-52.1-15.1-86.1-31.8-39.1-18.8-87.1-46-143.3-71.3-67.3-30.2-147.5-61.7-234.3-78.8-104.5-21.5-212.4-21.2-310.7-1.5C142.2,83.7,30.2,221.1,25.1,222.9h0Z"></path><path class="cls-4" d="M132.4,313.9c9.3-11.6,32.4-34.8,66.5-60.6,14.2-8.5,53.6-40.8,121.6-71.4,63.6-29.1,147.9-54.5,244.2-61.2,83.8-6.3,171,2.2,252,23.1,67.8,16.9,129.3,42.2,181,63.4,44.1,18,82.1,35.5,113.7,44.9,28.2,8.7,52.6,11.2,73,8.5,19-2.3,35.3-9.4,47.5-16.9,11.8-7.1,20-14.8,22.4-16.4,6.3-5.3,10.9-9.8,12.7-11.5.5-.4,1-.9,1.4-1.3.4-.4.7-.5.9-.2.2.3,0,1.2-.3,2.7-.3,1.6-.9,4.2-1.9,8.6,0,0-.1.1-.2.2l-.7.7c-1.8,1.4-10.2,10.9-22.4,20.3-12.5,9.8-29.4,20-48.9,25.1-20.8,5.6-45.7,5.6-74.1-1.3-32-7.3-70.3-23.6-114.8-40.4-52.5-19.7-115.2-44-184.2-59.2-82.8-19-171.5-24.3-255.7-14.4-96.6,10.7-178.9,40.2-238.6,70.3-63.4,31.7-96.4,61.6-102.8,63.8-.3.2-.6.5-.9.7-.6.4-1.1.8-1.5,1.2-44.4,35.7-64.6,62-75,78.1-.2.3-.4.6-.6.9-.2.3-.3.5-.5.8-6.8-7.5-15.8-17.9-22.7-25.8-7.5-9.5-7.2-10.7,8.9-32.5h0Z"></path><path class="cls-2" d="M147.2,370.6c10.3-16.1,30.6-42.4,75-78.1-44.4,35.7-64.7,62-75,78.1h0Z"></path><path class="cls-2" d="M1266.2,226.5c.2-.3.5-.5.7-.7l-.7.7Z"></path><path class="cls-1" d="M278.6,415.4c49.2-44.1,121.7-94.8,213.9-129.6,82.6-31.7,174.1-47.8,263-44.9,74.9,1.7,144.5,16.9,202.9,31.7,49.5,12.4,91.9,27.4,126.6,35.4,30.6,7.4,56.7,9.7,77.8,7.2,19.6-2.1,35.9-8.4,47.3-14.6,11.1-5.9,18-11.9,18.5-11.9h0c-.4,2.3-1,5.3-1.4,7.5-.4,1.9-1.2,2.9-1.6,3.2-.2-.3-6.9,5.5-17.8,11.4-11.2,6.1-27.2,12.5-46.5,14.8-20.8,2.8-46.4,1.1-76.6-5.6-34.1-7.1-75.6-14.2-124-25.5-57-13.2-124.6-26.7-197.2-27.2-86-1.4-174.3,15-254,46.1-88.9,34-159.2,82.7-207,124.7-49.5,43.2-72.1,69.8-74.7,70.4-2,3-5.3,4.1-8.2,1.9-7-5.1-17.5-13-17.6-13.1,2.9-1.4,25.9-36.8,76.8-82.1h0Z"></path><path class="cls-2" d="M412.3,67.4c94.8-19,198.4-19.6,298.4.2,83.3,15.7,160.4,45,225.1,72.8,54.3,23.9,100.8,48.7,138.8,65.5,33.2,15,61.4,24.5,84.5,27.7,21.2,3.1,39,.9,52.4-3.5,12.9-4,22.2-10.2,25.6-11.5,14.6-8.4,27.8-20.2,32.7-24.5h0c2-1.7,4.7-4,6.7-5.9.9-.8,1.1,0,.8,1.3-.4,1.6-.6,2.6.9,1.4,1.5-1.2,4.8-4.4,11.6-12.5.4-.4.6-.5.7-.3.4.5-.5,3.6-1.8,5.4-2.3,3.2-11.1,12.5-13.9,15.1-1.7,1.7-3.3,3.2-4.9,4.6h0c-4.9,4.5-17.1,16-30.9,24.6-3.5,1.8-12.7,8.3-25.5,12.9-13.3,5-30.9,8.2-51.8,6.3-22.7-1.8-50.2-9.8-82.6-23.3-36.9-15.1-81.9-38.2-134.4-59.6-62.3-25.4-136.2-52.2-216.2-66.2-95.7-17.6-194.9-16.2-286,2.5-221.1,42.6-331.7,168.1-339.5,173.5-2,2.5-4,5.1-6,7.8-6.4,8.4-6.7,7.9-33.9-33.9,7.1-5,119-136.8,349.2-180.5h0Z"></path><path class="cls-2" d="M1237.1,218.7c14.6-8.4,27.8-20.2,32.7-24.5h0c-4.9,4.3-18.1,16.1-32.7,24.5Z"></path><path class="cls-3" d="M1240.6,270c-3.4,2.4-12.4,10.2-24.9,17-12.9,7.2-29.8,13.4-49.7,15.2-21.4,2.1-47.2-1-77.1-9.1-33.8-8.9-74.6-24.5-121.8-38.7-55.5-16.6-120.9-34.1-191.7-40.5-83.8-8.3-171-.8-251.8,21.4-90.9,24.4-165.8,65.1-219.5,103.7-56.2,40.1-85.6,75.1-93.7,82.4-4.9,5.8-8.8,10.9-11.6,15h0c-8.1-7.9-18.9-18.8-27.3-27.2,8.1-12,61.2-70.8,139.3-119.3,12.4-6.1,47.9-30.9,106.9-54.5,55.2-22.4,127.5-42.3,209.1-48.3,71.8-5.7,146.5-.1,216.3,14.9,59.5,12.4,114,31.5,160.4,47.4,40.2,13.8,75.1,27.2,104.5,34.1,26.3,6.5,49.2,7.9,68.2,5.1,17.8-2.5,32.8-8.7,43.8-14.9,10.6-6,17.7-12.1,19.2-12.9,0,0,.1,0,.2-.1s.1,0,.2-.1c4-3.1,6.9-5.6,8.4-6.9-.2,1.1-.5,2.1-.7,3.2-.3,1.3-.1,2.4.8,1.7,4.7-3.6,14.3-13.1,20.9-21,.7-.8,1.1-.7.9.6-.2,1.3-.8,3.4-1.8,4.8-.5.6-1.5,1.9-2.4,2.9h0c-4,4.7-13.6,14.9-25.1,24.2h0Z"></path><path class="cls-3" d="M1239.6,260.5c0,0-.1,0-.2.1,0,0,.1,0,.2-.1Z"></path><path class="cls-3" d="M1239.3,260.8c-1.5.8-8.6,6.9-19.2,12.9-10.9,6.2-26,12.5-43.8,14.9-19,2.8-41.9,1.4-68.2-5.1-29.3-6.9-64.3-20.4-104.5-34.3-46.5-15.9-101-35-160.5-47.3-69.8-15-144.5-20.5-216.3-14.8-81.6,6-153.9,25.9-209.1,48.3-59,23.6-94.5,48.4-106.9,54.5,12.4-6.1,47.9-30.9,106.9-54.5,55.2-22.4,127.5-42.3,209.1-48.3,71.8-5.7,146.5-.1,216.3,14.9,59.5,12.4,114,31.5,160.4,47.4,40.2,13.8,75.1,27.2,104.4,34.1,26.3,6.5,49.2,7.9,68.2,5.1,17.8-2.5,32.8-8.7,43.8-14.9,10.6-6,17.7-12.1,19.2-12.9h0Z"></path><path class="cls-3" d="M210.4,421.4c-4.9,5.8-8.8,10.9-11.6,15h0c2.8-4.1,6.6-9.2,11.6-15Z"></path><path class="cls-3" d="M1240.6,270c11.5-9.3,21.2-19.6,25.1-24.2h0c-4,4.7-13.6,14.9-25.1,24.2Z"></path></g></g></g></g></g></svg>