<svg xmlns="http://www.w3.org/2000/svg" xmlns:xlink="http://www.w3.org/1999/xlink" width="1024" zoomAndPan="magnify" viewBox="0 0 768 576" height="768" preserveAspectRatio="xMidYMid meet" version="1.0"><rect x="-76.8" width="921.6" fill="#ffffff" y="-57.6" height="691.2" fill-opacity="1"/><rect x="-76.8" width="921.6" fill="#052b48" y="-57.6" height="691.2" fill-opacity="1"/><path fill="#b2c530" d="M 566.726562 224.191406 C 566.371094 224.191406 566.070312 224.359375 565.9375 224.710938 C 564.191406 229.382812 561.546875 236.441406 544.886719 252.828125 C 542.570312 255.101562 544.710938 257.433594 546.796875 257.433594 C 547.4375 257.433594 548.046875 257.242188 548.585938 256.683594 C 556.132812 248.789062 562.3125 242.125 566.910156 233.894531 C 567.636719 232.589844 569.726562 228.15625 569.703125 226.863281 C 569.6875 225.957031 568.074219 224.191406 566.734375 224.191406 " fill-opacity="1" fill-rule="nonzero"/><path fill="#ffffff" d="M 584.898438 225.152344 C 587.34375 225.152344 590.425781 229.292969 589.636719 238.523438 C 588.988281 246.058594 585.015625 253.023438 582.074219 258.089844 C 581.257812 259.5 579.523438 258.671875 578.960938 258.089844 C 578.527344 257.636719 577.191406 256.011719 578.339844 254.191406 C 588.265625 238.449219 586.023438 230.457031 584.6875 225.679688 C 584.601562 225.40625 584.636719 225.148438 584.898438 225.148438 " fill-opacity="1" fill-rule="nonzero"/><path fill="#00a180" d="M 582.832031 267.929688 C 582.191406 267.929688 581.722656 268.199219 581.3125 268.742188 C 580.398438 269.945312 579.15625 271.683594 578.382812 272.738281 C 577.851562 273.460938 577.484375 274.285156 577.484375 275.1875 C 577.484375 276.039062 578.011719 276.882812 578.609375 277.359375 C 579.160156 277.789062 579.679688 278.050781 580.464844 277.941406 C 580.96875 277.867188 581.507812 277.503906 581.796875 277.105469 C 582.804688 275.734375 584.132812 273.84375 584.828125 272.84375 C 585.101562 272.457031 585.359375 271.8125 585.410156 271.351562 C 585.609375 269.535156 584.34375 267.929688 582.832031 267.929688 " fill-opacity="1" fill-rule="nonzero"/><path fill="#ffffff" d="M 522.515625 231.558594 C 521.949219 231.570312 521.449219 231.738281 520.933594 232.152344 C 519.117188 233.613281 515.425781 236.621094 512.710938 238.878906 C 511.398438 239.964844 512.117188 242.0625 513.460938 242.203125 C 513.898438 242.25 514.597656 242.179688 515.371094 241.535156 C 517.460938 239.792969 522.585938 235.488281 523.601562 234.597656 C 524.820312 233.523438 524.105469 231.558594 522.515625 231.558594 " fill-opacity="1" fill-rule="nonzero"/><path fill="#b2c530" d="M 510.214844 246.570312 C 509.664062 246.503906 509.28125 246.78125 508.542969 247.378906 C 499.433594 255.457031 492.953125 261.796875 487.957031 267.371094 C 482.105469 273.902344 478.292969 279.378906 474.675781 285.375 C 479.484375 293.546875 479.671875 293.863281 481.074219 291.648438 C 481.617188 290.804688 482.15625 289.972656 482.695312 289.152344 C 489.9375 278.179688 497.414062 269.28125 515.679688 252.648438 C 513.585938 249.933594 512.402344 248.492188 511.691406 247.640625 C 511.039062 246.863281 510.6875 246.632812 510.210938 246.570312 " fill-opacity="1" fill-rule="nonzero"/><path fill="#ffffff" d="M 487.648438 261.578125 C 493.777344 255.289062 499.128906 250.421875 504.292969 245.820312 C 505.238281 244.976562 505.589844 244.207031 505.589844 243.359375 C 505.589844 242.511719 505.046875 241.714844 504.148438 241.714844 C 503.636719 241.714844 503.277344 241.871094 502.519531 242.480469 C 497.335938 246.917969 495.941406 248.113281 491.210938 252.539062 C 490.234375 250.035156 489.578125 248.476562 489.144531 247.542969 C 488.566406 246.296875 487.914062 246.296875 486.894531 247.277344 C 481.421875 252.550781 478.21875 255.894531 476.328125 258.105469 C 473.773438 261.097656 473.640625 262.257812 473.972656 263.546875 C 474.304688 264.835938 475.292969 267.671875 475.964844 269.398438 C 468.804688 279.53125 468.667969 280.148438 469.652344 282.6875 C 472.332031 288.347656 472.613281 288.933594 473.851562 286.867188 C 474.136719 286.375 474.398438 285.855469 474.683594 285.375 C 478.296875 279.382812 482.109375 273.902344 487.960938 267.371094 C 486.585938 264.871094 485.890625 263.605469 487.652344 261.578125 " fill-opacity="1" fill-rule="nonzero"/><path fill="#b2c530" d="M 502.121094 315.117188 C 504.75 310.890625 510.292969 303.882812 521.332031 291.890625 C 525.699219 287.230469 533.679688 279.214844 545.269531 267.839844 C 542.476562 265.167969 540.800781 263.59375 539.753906 262.636719 C 538.71875 261.6875 538.050781 261.253906 537.21875 261.253906 C 536.386719 261.253906 535.785156 261.507812 535.21875 262.042969 C 534.65625 262.574219 534.03125 263.171875 533.433594 263.734375 C 522.210938 274.371094 510.628906 285.574219 498.71875 301.414062 C 494.683594 307.132812 494.523438 307.355469 496.378906 309.417969 C 498.089844 311.128906 500.386719 313.433594 502.128906 315.117188 " fill-opacity="1" fill-rule="nonzero"/><path fill="#00a180" d="M 574.96875 240.933594 C 574.5 240.933594 574.058594 241.257812 573.785156 241.71875 C 565.8125 255.261719 556.671875 264.144531 556.589844 264.21875 C 554.015625 266.542969 551.441406 262.105469 548.871094 264.21875 L 545.265625 267.835938 C 533.675781 279.210938 525.695312 287.230469 521.332031 291.890625 C 510.292969 303.878906 504.75 310.890625 502.117188 315.113281 C 498.976562 320.160156 500 321.234375 500.792969 322.070312 C 506.398438 327.085938 506.730469 327.015625 507.769531 325.582031 C 508.015625 325.238281 508.53125 324.488281 508.90625 323.953125 C 514.933594 315.449219 520.589844 308.976562 533.382812 296.109375 C 535.050781 294.425781 536.84375 292.632812 538.78125 290.71875 C 549.324219 280.246094 563.546875 265.285156 570.855469 255.257812 C 574.714844 249.960938 576.445312 247.101562 577.820312 243.734375 C 578.371094 242.386719 576.871094 240.929688 574.964844 240.929688 " fill-opacity="1" fill-rule="nonzero"/><path fill="#b2c530" d="M 530.460938 330.144531 C 524.789062 336.457031 521.398438 341.148438 517.523438 347.445312 C 517.523438 347.445312 520.816406 349.765625 523.03125 351.285156 C 523.984375 351.941406 525.054688 351.664062 525.683594 350.804688 C 529.027344 346.242188 532.339844 341.910156 536.039062 338.078125 C 536.542969 337.558594 537.179688 336.265625 535.886719 334.992188 C 534.257812 333.539062 532.089844 331.601562 530.460938 330.152344 " fill-opacity="1" fill-rule="nonzero"/><path fill="#00a180" d="M 547.320312 230.679688 C 546.746094 230.679688 546.40625 230.835938 545.894531 231.265625 C 530.09375 247.132812 529.640625 246.6875 527.746094 244.828125 C 527.007812 244.097656 525.621094 243.894531 524.40625 244.910156 C 521.78125 247.222656 518.292969 250.3125 515.683594 252.648438 C 497.417969 269.285156 489.941406 278.183594 482.699219 289.152344 C 488.625 297.332031 488.707031 297.445312 490.257812 295.308594 C 490.738281 294.628906 491.21875 293.96875 491.691406 293.320312 C 500.21875 281.597656 507.25 273.675781 526.097656 256.222656 C 528.042969 254.417969 530.113281 252.511719 532.332031 250.488281 C 536 247.136719 547.171875 236.9375 549.25 234.183594 C 550.5 232.535156 548.914062 230.679688 547.320312 230.679688 " fill-opacity="1" fill-rule="nonzero"/><path fill="#ffffff" d="M 526.097656 256.222656 C 507.253906 273.675781 500.222656 281.597656 491.695312 293.320312 C 493.773438 295.785156 496.5625 299.027344 498.710938 301.414062 C 510.621094 285.574219 522.203125 274.375 533.425781 263.734375 C 531.21875 261.507812 528.273438 258.5 526.09375 256.226562 " fill-opacity="1" fill-rule="nonzero"/><path fill="#00a180" d="M 568.292969 293.296875 C 574.480469 286.96875 574.199219 286.113281 572.503906 284.246094 C 570.808594 282.378906 568.65625 280.011719 566.832031 278.042969 C 550.832031 296.273438 530.671875 310.769531 516.726562 330.726562 C 514.363281 334.117188 512.726562 336.632812 511.636719 338.523438 C 508.785156 343.488281 509.699219 344.191406 511.085938 345.25 C 512.355469 346.152344 515.367188 348.257812 515.722656 348.472656 C 516.382812 348.882812 516.75 348.714844 517.140625 348.070312 C 517.28125 347.839844 517.375 347.679688 517.523438 347.445312 C 521.398438 341.148438 524.789062 336.457031 530.460938 330.148438 C 532.308594 328.082031 536.800781 323.746094 538.8125 321.886719 C 540.871094 323.808594 543.203125 325.933594 544.316406 326.914062 C 545.511719 327.96875 546.628906 328.230469 547.859375 327.113281 C 549.835938 325.320312 559.613281 316.183594 561.453125 314.289062 C 562.453125 313.257812 562.539062 311.953125 561.761719 310.945312 C 560.191406 309.199219 558.519531 307.335938 556.503906 305.136719 C 560.8125 300.890625 564.550781 297.128906 568.296875 293.300781 " fill-opacity="1" fill-rule="nonzero"/><path fill="#ffffff" d="M 566.832031 278.042969 C 567.78125 276.949219 568.875 275.601562 569.335938 274.96875 C 570.335938 273.59375 569.269531 272.1875 568.09375 271.421875 C 566.882812 270.632812 565.628906 270.910156 564.886719 271.761719 C 557.59375 280.035156 545.671875 292.285156 539.21875 298.175781 C 537.96875 299.316406 536.375 298.949219 535.449219 298.128906 L 533.390625 296.109375 C 520.59375 308.976562 514.941406 315.449219 508.917969 323.957031 C 511.261719 326.007812 514.367188 328.703125 516.734375 330.726562 C 530.675781 310.765625 550.839844 296.269531 566.839844 278.042969 " fill-opacity="1" fill-rule="nonzero"/><path fill="#ffffff" d="M 178.566406 250.484375 L 178.566406 284.945312 L 186.375 284.945312 L 186.375 271.820312 L 198.0625 271.820312 L 198.0625 265.15625 L 186.375 265.15625 L 186.375 257.355469 L 201.734375 257.355469 L 201.734375 250.484375 Z M 178.566406 250.484375 " fill-opacity="1" fill-rule="nonzero"/><path fill="#ffffff" d="M 227.226562 270.890625 C 227.226562 273.132812 226.746094 274.9375 225.78125 276.316406 C 224.8125 277.695312 223.105469 278.382812 220.660156 278.382812 C 218.214844 278.382812 216.496094 277.695312 215.515625 276.316406 C 214.53125 274.9375 214.042969 273.132812 214.042969 270.890625 L 214.042969 250.484375 L 206.183594 250.484375 L 206.183594 271.871094 C 206.183594 274.628906 206.777344 277.0625 207.96875 279.179688 C 209.15625 281.300781 210.835938 282.945312 213.007812 284.113281 C 215.179688 285.285156 217.730469 285.871094 220.660156 285.871094 C 223.589844 285.871094 226.183594 285.277344 228.339844 284.089844 C 230.492188 282.898438 232.164062 281.253906 233.355469 279.15625 C 234.546875 277.058594 235.140625 274.628906 235.140625 271.875 L 235.140625 250.488281 L 227.226562 250.488281 L 227.226562 270.894531 Z M 227.226562 270.890625 " fill-opacity="1" fill-rule="nonzero"/><path fill="#ffffff" d="M 263.996094 250.484375 L 263.996094 272.851562 L 249.050781 250.484375 L 241.605469 250.484375 L 241.605469 284.945312 L 249.308594 284.945312 L 249.308594 262.160156 L 264.617188 284.945312 L 271.699219 284.945312 L 271.699219 250.484375 Z M 263.996094 250.484375 " fill-opacity="1" fill-rule="nonzero"/><path fill="#ffffff" d="M 300.945312 252.316406 C 298.171875 251.09375 295.007812 250.484375 291.457031 250.484375 L 278.425781 250.484375 L 278.425781 284.945312 L 291.40625 284.945312 C 294.957031 284.945312 298.117188 284.316406 300.894531 283.058594 C 303.667969 281.800781 305.855469 279.90625 307.460938 277.375 C 309.066406 274.84375 309.867188 271.683594 309.867188 267.894531 C 309.867188 263.867188 309.074219 260.566406 307.484375 258.003906 C 305.898438 255.441406 303.71875 253.542969 300.945312 252.320312 Z M 298.949219 275.28125 C 297.085938 277.109375 294.433594 278.019531 290.988281 278.019531 L 286.230469 278.019531 L 286.230469 257.351562 L 290.988281 257.351562 C 294.710938 257.351562 297.433594 258.308594 299.15625 260.21875 C 300.882812 262.132812 301.742188 264.671875 301.742188 267.839844 C 301.742188 271.007812 300.808594 273.457031 298.949219 275.277344 Z M 298.949219 275.28125 " fill-opacity="1" fill-rule="nonzero"/><path fill="#ffffff" d="M 323.566406 250.484375 L 310.691406 284.945312 L 318.859375 284.945312 L 321.496094 277.039062 L 333.648438 277.039062 L 336.28125 284.945312 L 344.816406 284.945312 L 332.199219 250.484375 L 323.5625 250.484375 Z M 323.308594 270.996094 L 327.597656 257.976562 L 331.789062 270.996094 Z M 323.308594 270.996094 " fill-opacity="1" fill-rule="nonzero"/><path fill="#ffffff" d="M 370.601562 275.980469 C 369.824219 276.683594 368.886719 277.261719 367.78125 277.710938 C 366.675781 278.15625 365.300781 278.382812 363.644531 278.382812 C 361.644531 278.382812 359.90625 277.910156 358.421875 276.960938 C 356.9375 276.011719 355.792969 274.730469 354.980469 273.109375 C 354.171875 271.492188 353.765625 269.667969 353.765625 267.632812 C 353.765625 265.601562 354.171875 263.8125 354.980469 262.15625 C 355.792969 260.503906 356.949219 259.1875 358.445312 258.203125 C 359.945312 257.222656 361.730469 256.730469 363.796875 256.730469 C 365.863281 256.730469 367.449219 257.167969 368.863281 258.046875 C 370.277344 258.925781 371.5 260.089844 372.535156 261.535156 L 377.863281 256.421875 C 376.273438 254.21875 374.277344 252.53125 371.863281 251.359375 C 369.449219 250.1875 366.65625 249.601562 363.484375 249.601562 C 360.828125 249.601562 358.410156 250.066406 356.21875 250.996094 C 354.03125 251.925781 352.152344 253.21875 350.582031 254.871094 C 349.011719 256.523438 347.800781 258.460938 346.9375 260.683594 C 346.074219 262.90625 345.644531 265.289062 345.644531 267.835938 C 345.644531 271.316406 346.390625 274.40625 347.890625 277.113281 C 349.394531 279.820312 351.476562 281.941406 354.152344 283.492188 C 356.820312 285.042969 359.898438 285.820312 363.382812 285.820312 C 365.519531 285.820312 367.519531 285.492188 369.382812 284.835938 C 371.246094 284.183594 372.925781 283.304688 374.421875 282.203125 C 375.921875 281.101562 377.15625 279.898438 378.121094 278.589844 L 372.792969 273.730469 C 372.105469 274.523438 371.371094 275.273438 370.597656 275.980469 Z M 370.601562 275.980469 " fill-opacity="1" fill-rule="nonzero"/><path fill="#ffffff" d="M 367.367188 287.992188 C 366.160156 287.199219 364.710938 286.800781 363.023438 286.800781 C 361.335938 286.800781 359.765625 286.992188 358.523438 287.371094 L 357.851562 290.882812 C 358.371094 290.710938 358.929688 290.578125 359.53125 290.496094 C 360.136719 290.410156 360.730469 290.367188 361.316406 290.367188 C 362.007812 290.367188 362.617188 290.460938 363.152344 290.652344 C 363.6875 290.839844 363.953125 291.175781 363.953125 291.65625 C 363.953125 292.210938 363.648438 292.578125 363.046875 292.769531 C 362.445312 292.957031 361.800781 293.050781 361.109375 293.050781 C 359.902344 293.050781 358.675781 292.84375 357.4375 292.429688 L 356.714844 296.148438 C 357.164062 296.285156 357.859375 296.449219 358.808594 296.636719 C 359.757812 296.828125 360.867188 296.921875 362.144531 296.921875 C 363.28125 296.921875 364.394531 296.730469 365.480469 296.351562 C 366.566406 295.972656 367.453125 295.378906 368.144531 294.570312 C 368.832031 293.761719 369.179688 292.738281 369.179688 291.496094 C 369.179688 289.945312 368.574219 288.777344 367.367188 287.984375 Z M 367.367188 287.992188 " fill-opacity="1" fill-rule="nonzero"/><path fill="#ffffff" d="M 392.085938 250.484375 L 379.210938 284.945312 L 387.378906 284.945312 L 390.015625 277.039062 L 402.167969 277.039062 L 404.804688 284.945312 L 413.335938 284.945312 L 400.71875 250.484375 L 392.082031 250.484375 Z M 391.828125 270.996094 L 396.121094 257.976562 L 400.308594 270.996094 Z M 391.828125 270.996094 " fill-opacity="1" fill-rule="nonzero"/><path fill="#ffffff" d="M 390.402344 246.222656 C 391.179688 245.828125 392.101562 245.628906 393.171875 245.628906 C 394.101562 245.628906 394.917969 245.808594 395.625 246.171875 C 396.332031 246.53125 397.046875 246.902344 397.773438 247.28125 C 398.496094 247.660156 399.324219 247.851562 400.253906 247.851562 C 401.667969 247.851562 402.941406 247.503906 404.078125 246.816406 C 405.21875 246.125 406.164062 245.386719 406.921875 244.59375 L 404.128906 240.355469 C 403.542969 240.804688 402.863281 241.234375 402.089844 241.648438 C 401.3125 242.0625 400.390625 242.269531 399.320312 242.269531 C 398.425781 242.269531 397.613281 242.089844 396.890625 241.726562 C 396.167969 241.367188 395.445312 241.003906 394.71875 240.644531 C 393.996094 240.28125 393.167969 240.101562 392.238281 240.101562 C 390.859375 240.101562 389.582031 240.4375 388.414062 241.109375 C 387.238281 241.78125 386.292969 242.511719 385.570312 243.304688 L 388.359375 247.539062 C 388.945312 247.058594 389.625 246.621094 390.402344 246.222656 Z M 390.402344 246.222656 " fill-opacity="1" fill-rule="nonzero"/><path fill="#ffffff" d="M 448.710938 260.535156 C 447.816406 258.347656 446.546875 256.425781 444.910156 254.773438 C 443.269531 253.121094 441.367188 251.835938 439.195312 250.925781 C 437.023438 250.011719 434.664062 249.554688 432.113281 249.554688 C 429.5625 249.554688 427.191406 250.015625 425.003906 250.925781 C 422.8125 251.835938 420.90625 253.121094 419.289062 254.773438 C 417.667969 256.429688 416.414062 258.347656 415.515625 260.535156 C 414.617188 262.722656 414.171875 265.109375 414.171875 267.6875 C 414.171875 270.269531 414.617188 272.613281 415.515625 274.816406 C 416.414062 277.023438 417.679688 278.949219 419.316406 280.605469 C 420.957031 282.257812 422.859375 283.539062 425.03125 284.453125 C 427.203125 285.367188 429.5625 285.824219 432.117188 285.824219 C 434.671875 285.824219 437.03125 285.363281 439.199219 284.453125 C 441.375 283.539062 443.277344 282.257812 444.914062 280.605469 C 446.550781 278.949219 447.816406 277.023438 448.714844 274.816406 C 449.613281 272.613281 450.058594 270.238281 450.058594 267.6875 C 450.058594 265.140625 449.613281 262.722656 448.714844 260.535156 Z M 440.722656 273.007812 C 439.945312 274.660156 438.824219 275.984375 437.359375 276.984375 C 435.894531 277.984375 434.144531 278.484375 432.113281 278.484375 C 430.082031 278.484375 428.328125 277.984375 426.867188 276.984375 C 425.398438 275.984375 424.273438 274.660156 423.476562 273.007812 C 422.683594 271.351562 422.289062 269.546875 422.289062 267.582031 C 422.289062 265.617188 422.683594 263.820312 423.476562 262.183594 C 424.273438 260.550781 425.398438 259.242188 426.867188 258.257812 C 428.332031 257.277344 430.082031 256.789062 432.113281 256.789062 C 434.144531 256.789062 435.898438 257.277344 437.359375 258.257812 C 438.828125 259.242188 439.945312 260.550781 440.722656 262.183594 C 441.496094 263.820312 441.882812 265.621094 441.882812 267.582031 C 441.882812 269.542969 441.496094 271.351562 440.722656 273.007812 Z M 440.722656 273.007812 " fill-opacity="1" fill-rule="nonzero"/><path fill="#ffffff" d="M 217.601562 350.390625 L 217.601562 339.25 L 191.058594 339.25 L 191.058594 294.941406 L 178.492188 294.941406 L 178.492188 350.390625 Z M 217.601562 350.390625 " fill-opacity="1" fill-rule="nonzero"/><path fill="#ffffff" d="M 253.839844 312.941406 C 250.980469 311.027344 247.445312 310.074219 243.230469 310.074219 C 239.011719 310.074219 235.394531 311.027344 232.367188 312.941406 C 229.34375 314.855469 227.042969 317.386719 225.460938 320.546875 C 223.882812 323.710938 223.09375 327.113281 223.09375 330.773438 C 223.09375 334.875 223.949219 338.507812 225.671875 341.667969 C 227.390625 344.828125 229.859375 347.292969 233.078125 349.066406 C 236.296875 350.839844 240.125 351.726562 244.5625 351.726562 C 247.945312 351.726562 250.800781 351.339844 253.132812 350.5625 C 255.460938 349.789062 257.332031 348.957031 258.746094 348.066406 C 260.160156 347.183594 261.144531 346.542969 261.699219 346.15625 L 256.792969 338.589844 C 255.90625 339.253906 254.492188 340.042969 252.546875 340.957031 C 250.605469 341.871094 248.082031 342.328125 244.976562 342.328125 C 241.871094 342.328125 239.398438 341.527344 237.566406 339.917969 C 235.734375 338.3125 234.792969 336.484375 234.738281 334.433594 L 262.53125 334.433594 L 262.53125 332.4375 C 262.53125 328.058594 261.796875 324.191406 260.328125 320.839844 C 258.859375 317.484375 256.695312 314.851562 253.839844 312.941406 Z M 234.742188 326.78125 C 234.742188 325.675781 235.058594 324.550781 235.699219 323.414062 C 236.335938 322.277344 237.277344 321.320312 238.527344 320.546875 C 239.777344 319.769531 241.316406 319.378906 243.148438 319.378906 C 244.980469 319.378906 246.488281 319.769531 247.679688 320.546875 C 248.875 321.320312 249.761719 322.277344 250.34375 323.414062 C 250.925781 324.550781 251.214844 325.671875 251.214844 326.78125 L 234.738281 326.78125 Z M 234.742188 326.78125 " fill-opacity="1" fill-rule="nonzero"/><path fill="#ffffff" d="M 317.117188 310.488281 C 314.621094 310.488281 312.222656 310.960938 309.921875 311.902344 C 307.621094 312.84375 305.664062 314.175781 304.054688 315.890625 C 303.167969 314.617188 301.808594 313.398438 299.980469 312.234375 C 298.148438 311.070312 295.679688 310.488281 292.570312 310.488281 C 290.019531 310.488281 287.800781 310.988281 285.914062 311.984375 C 284.027344 312.980469 282.472656 314.226562 281.253906 315.722656 L 280.835938 311.402344 L 269.351562 311.402344 L 269.351562 350.390625 L 281.335938 350.390625 L 281.335938 329.441406 C 281.335938 326.945312 282.054688 324.898438 283.496094 323.289062 C 284.941406 321.683594 286.773438 320.878906 288.992188 320.878906 C 291.042969 320.878906 292.582031 321.53125 293.609375 322.832031 C 294.632812 324.136719 295.148438 325.925781 295.148438 328.195312 L 295.148438 350.394531 L 306.714844 350.394531 L 306.714844 329.445312 C 306.714844 326.949219 307.421875 324.902344 308.839844 323.292969 C 310.253906 321.6875 312.09375 320.882812 314.371094 320.882812 C 316.425781 320.882812 317.964844 321.535156 318.992188 322.835938 C 320.015625 324.140625 320.53125 325.929688 320.53125 328.199219 L 320.53125 350.398438 L 332.511719 350.398438 L 332.511719 326.292969 C 332.511719 321.46875 331.179688 317.632812 328.515625 314.777344 C 325.855469 311.925781 322.054688 310.496094 317.117188 310.496094 Z M 317.117188 310.488281 " fill-opacity="1" fill-rule="nonzero"/><path fill="#ffffff" d="M 357.972656 310.070312 C 353.367188 310.070312 349.679688 310.613281 346.90625 311.691406 C 344.132812 312.773438 341.941406 313.949219 340.332031 315.222656 L 345.242188 322.539062 C 346.464844 321.707031 347.960938 320.957031 349.734375 320.292969 C 351.507812 319.628906 353.699219 319.296875 356.308594 319.296875 C 358.25 319.296875 359.980469 319.726562 361.503906 320.585938 C 363.03125 321.445312 363.792969 322.871094 363.792969 324.867188 L 363.792969 325.699219 C 363.347656 325.585938 362.421875 325.503906 361.003906 325.449219 C 359.589844 325.394531 358.191406 325.367188 356.804688 325.367188 C 353.417969 325.367188 350.371094 325.910156 347.652344 326.988281 C 344.933594 328.070312 342.78125 329.660156 341.203125 331.769531 C 339.621094 333.875 338.832031 336.453125 338.832031 339.5 C 338.832031 342.546875 339.554688 345.042969 340.996094 346.8125 C 342.4375 348.589844 344.167969 349.820312 346.195312 350.511719 C 348.21875 351.203125 350.148438 351.546875 351.976562 351.546875 C 357.078125 351.546875 361.019531 349.941406 363.792969 346.726562 L 364.125 350.382812 L 375.359375 350.382812 L 375.359375 327.691406 C 375.359375 322.316406 373.941406 318.03125 371.113281 314.847656 C 368.285156 311.664062 363.902344 310.066406 357.964844 310.066406 Z M 363.800781 336.339844 C 363.800781 338.503906 363.011719 340.164062 361.429688 341.328125 C 359.851562 342.496094 358.113281 343.078125 356.230469 343.078125 C 352.347656 343.078125 350.40625 341.46875 350.40625 338.253906 C 350.40625 336.539062 351.101562 335.207031 352.488281 334.261719 C 353.875 333.324219 356.230469 332.851562 359.558594 332.851562 C 360.558594 332.851562 361.445312 332.890625 362.222656 332.972656 C 363 333.058594 363.527344 333.125 363.804688 333.179688 L 363.804688 336.339844 Z M 363.800781 336.339844 " fill-opacity="1" fill-rule="nonzero"/><path fill="#ffffff" d="M 407.484375 310.488281 C 405.265625 310.488281 403.097656 310.960938 400.996094 311.902344 C 398.886719 312.84375 397.191406 314.089844 395.917969 315.640625 L 395.589844 311.402344 L 384.101562 311.402344 L 384.101562 350.390625 L 396.003906 350.390625 L 396.003906 329.441406 C 396.003906 327.171875 396.683594 325.175781 398.042969 323.453125 C 399.402344 321.738281 401.382812 320.875 403.992188 320.875 C 405.933594 320.875 407.445312 321.515625 408.527344 322.789062 C 409.605469 324.0625 410.148438 325.78125 410.148438 327.941406 L 410.148438 350.386719 L 422.128906 350.386719 L 422.128906 326.28125 C 422.128906 321.074219 420.796875 317.136719 418.132812 314.476562 C 415.46875 311.816406 411.921875 310.484375 407.484375 310.484375 Z M 407.484375 310.488281 " fill-opacity="1" fill-rule="nonzero"/><path fill="#ffffff" d="M 464.898438 314.480469 C 462.234375 311.816406 458.683594 310.488281 454.25 310.488281 C 452.03125 310.488281 449.867188 310.960938 447.757812 311.902344 C 445.652344 312.84375 443.957031 314.089844 442.683594 315.640625 L 442.351562 311.402344 L 430.871094 311.402344 L 430.871094 350.390625 L 442.769531 350.390625 L 442.769531 329.441406 C 442.769531 327.171875 443.449219 325.175781 444.808594 323.453125 C 446.167969 321.738281 448.152344 320.875 450.761719 320.875 C 452.703125 320.875 454.214844 321.515625 455.292969 322.789062 C 456.375 324.0625 456.914062 325.78125 456.914062 327.941406 L 456.914062 350.386719 L 468.898438 350.386719 L 468.898438 326.28125 C 468.898438 321.074219 467.566406 317.136719 464.902344 314.476562 Z M 464.898438 314.480469 " fill-opacity="1" fill-rule="nonzero"/></svg>